<?xml version="1.0" encoding="utf-8"?>
<!-- Generator: Adobe Illustrator 16.0.0, SVG Export Plug-In . SVG Version: 6.00 Build 0)  -->
<!DOCTYPE svg PUBLIC "-//W3C//DTD SVG 1.1//EN" "http://www.w3.org/Graphics/SVG/1.1/DTD/svg11.dtd">
<svg version="1.1" id="Слой_1" xmlns="http://www.w3.org/2000/svg" xmlns:xlink="http://www.w3.org/1999/xlink" x="0px" y="0px"
	 width="48.002px" height="45.986px" viewBox="0 0 48.002 45.986" enable-background="new 0 0 48.002 45.986" xml:space="preserve">
<path fill="#f5d31d" d="M47.698,24.128L35.527,1.74C35.059,0.716,34.004,0,32.78,0c-1.024,0-1.931,0.502-2.474,1.267
	c-0.002,0.002-0.003,0.003-0.004,0.005l-11.646,15.11c-0.161-0.02-0.324-0.031-0.489-0.031h-5.237c-2.078,0-3.77,1.646-3.77,3.67
	v4.506H4.533c-1.236,0-2.243,0.979-2.243,2.183v5.203c0,1.203,1.006,2.184,2.243,2.184h5.344h0.812v1.578H5.296
	C2.376,35.674,0,37.988,0,40.83c0,2.844,2.376,5.156,5.296,5.156h18.323c2.92,0,5.297-2.313,5.297-5.156
	c0-2.842-2.377-5.156-5.297-5.156h-5.392v-1.578h6.155c0.396,0,0.715-0.313,0.715-0.697v-2.275l0.813-0.001
	c0.009,0,0.019-0.001,0.027-0.001c0.016-0.001,0.03-0.001,0.045-0.003c0.008,0,0.016-0.002,0.022-0.003
	c0.017-0.002,0.032-0.004,0.049-0.008c0.013-0.002,0.025-0.005,0.038-0.009c0.01-0.003,0.021-0.005,0.03-0.008
	c0.008-0.003,0.016-0.005,0.022-0.008c0.016-0.005,0.029-0.011,0.043-0.016c0.002,0,0.004-0.001,0.006-0.002
	c0.041-0.018,0.08-0.038,0.116-0.062c0.009-0.006,0.018-0.014,0.026-0.02c0.01-0.008,0.02-0.014,0.029-0.021
	s0.018-0.016,0.027-0.024c0.008-0.007,0.016-0.013,0.023-0.021c0.006-0.006,0.012-0.014,0.019-0.021
	c0.009-0.009,0.019-0.019,0.027-0.028c0.003-0.004,0.006-0.008,0.009-0.012c0.011-0.014,0.021-0.027,0.032-0.042
	c0.005-0.007,0.009-0.014,0.013-0.021c0.008-0.013,0.016-0.024,0.023-0.037c0.039-0.072,0.066-0.152,0.078-0.236
	c0.005-0.031,0.008-0.063,0.008-0.096v-2.659c0-1.316-0.396-2.59-1.146-3.685l-1.134-1.657l7.863-12.851L43.822,26.32
	c0.271,0.452,0.703,0.801,1.221,0.971v1.15l-0.209-0.505c-0.07-0.173-0.208-0.31-0.383-0.382c-0.174-0.072-0.371-0.074-0.547-0.005
	l-9.782,3.825l-1.685-1.353c-0.305-0.245-0.756-0.202-1.008,0.094c-0.252,0.297-0.208,0.737,0.097,0.981l5.283,4.24
	c0.966,0.773,2.159,1.178,3.369,1.178c0.665,0,1.335-0.123,1.975-0.373l2.436-0.952c1.05-0.41,1.731-1.337,1.862-2.36
	c0.016-0.056,0.023-0.114,0.023-0.176v-5.363c0.887-0.291,1.527-1.107,1.527-2.068C48.002,24.824,47.891,24.45,47.698,24.128z
	 M9.161,32.701H4.533c-0.447,0-0.811-0.354-0.811-0.789v-5.203c0-0.436,0.364-0.789,0.811-0.789h4.628V32.701z M44.055,33.897
	l-2.436,0.952c-1.313,0.514-2.807,0.289-3.898-0.588l-2.34-1.878l8.393-3.282l1.156,2.803
	C45.253,32.688,44.861,33.582,44.055,33.897z M32.78,1.394c0.589,0,1.103,0.317,1.373,0.785c0.011,0.027,0.022,0.055,0.037,0.082
	l0.046,0.085c0.076,0.179,0.119,0.376,0.119,0.582c0,0.29-0.085,0.56-0.229,0.792c-0.005,0.007-0.01,0.013-0.014,0.02l-0.03,0.049
	c-0.284,0.405-0.762,0.672-1.303,0.672c-0.868,0-1.574-0.688-1.574-1.533C31.206,2.081,31.912,1.394,32.78,1.394z M23.619,37.068
	c2.131,0,3.865,1.688,3.865,3.762s-1.734,3.763-3.865,3.763H5.296c-2.131,0-3.865-1.688-3.865-3.763s1.734-3.762,3.865-3.762H23.619
	z M12.12,35.674v-1.578h4.676v1.578H12.12z M23.667,32.701H10.593v-7.475c0-0.002,0-0.002,0-0.004c0-0.001,0-0.002,0-0.004v-5.198
	c0-1.012,0.682-1.872,1.622-2.167v10.007c0,0.83,0.503,1.583,1.281,1.92c2.057,0.89,4.241,1.341,6.491,1.341h3.68V32.701z
	 M25.193,27.767v1.962h-5.206c-0.853,0-1.695-0.072-2.523-0.215v-9.493c0-0.385-0.32-0.697-0.716-0.697s-0.716,0.312-0.716,0.697
	v9.175c-0.664-0.183-1.316-0.411-1.955-0.688c-0.261-0.113-0.431-0.367-0.431-0.646V17.744h4.521c0.784,0,1.511,0.379,1.945,1.014
	l4.175,6.096C24.881,25.719,25.193,26.727,25.193,27.767z M23.465,21.141l-2.161-3.156c-0.321-0.469-0.742-0.85-1.225-1.127
	l9.907-12.854c0.441,1.082,1.527,1.85,2.794,1.85c0.013,0,0.026-0.001,0.039-0.001L23.465,21.141z M43.922,23.974L33.018,8.251
	l2.289-3.741c0.02-0.029,0.039-0.06,0.059-0.09l10.131,18.636C44.846,23.129,44.279,23.476,43.922,23.974z M45.76,26.012
	c-0.447,0-0.812-0.354-0.812-0.789s0.364-0.79,0.812-0.79s0.811,0.354,0.811,0.79S46.207,26.012,45.76,26.012z"/>
</svg>
